<?xml version="1.0" standalone="no"?>
<!DOCTYPE svg PUBLIC "-//W3C//DTD SVG 20010904//EN"
 "http://www.w3.org/TR/2001/REC-SVG-20010904/DTD/svg10.dtd">
<svg version="1.0" xmlns="http://www.w3.org/2000/svg"
 width="150.000000pt" height="150.000000pt" viewBox="0 0 150.000000 150.000000"
 preserveAspectRatio="xMidYMid meet">
<metadata>
Created by potrace 1.16, written by Peter Selinger 2001-2019
</metadata>
<g transform="translate(0.000000,150.000000) scale(0.100000,-0.100000)"
fill="#000000" stroke="none">
<path d="M318 1180 l-86 -5 92 -255 c51 -140 132 -369 181 -507 l90 -253 93 0
c50 0 92 1 92 3 0 2 -29 84 -64 183 -248 692 -298 829 -304 834 -4 3 -46 3
-94 0z"/>
<path d="M1065 1167 c-158 -61 -260 -261 -300 -587 -8 -69 -17 -142 -20 -162
-3 -21 -3 -38 0 -38 3 0 35 59 71 132 139 278 232 373 362 371 l52 -1 0 149 0
149 -67 -1 c-38 0 -82 -6 -98 -12z"/>
</g>
</svg>
